<svg xmlns="http://www.w3.org/2000/svg" viewBox="0 0 1912 922" preserveAspectRatio="xMidYMid" width="1912" height="922" xmlns:xlink="http://www.w3.org/1999/xlink" style="shape-rendering:auto;display:block;background-position-x:0%;background-position-y:0%;background-size:auto;background-origin:padding-box;background-clip:border-box;background:scroll rgb(255, 255, 255) none  repeat;width:1912px;height:922px;;animation:none"><g><g transform="matrix(1,0,0,1,0,0)" style="transform:matrix(1, 0, 0, 1, 0, 0);;animation:none"><path fill="#00ffff" d="M-191.20 -181.64A95.60 95.60 0 0 1 0 -181.64A95.60 95.60 0 0 1 191.20 -181.64A95.60 95.60 0 0 1 382.40 -181.64A95.60 95.60 0 0 1 573.60 -181.64A95.60 95.60 0 0 1 764.80 -181.64A95.60 95.60 0 0 1 956 -181.64A95.60 95.60 0 0 1 1147.20 -181.64A95.60 95.60 0 0 1 1338.40 -181.64A95.60 95.60 0 0 1 1529.60 -181.64A95.60 95.60 0 0 1 1720.80 -181.64A95.60 95.60 0 0 1 1912 -181.64A95.60 95.60 0 0 1 2103.20 -181.64L-191.20 -181.64" transform="matrix(1,0,0,1,0,0)" style="fill:rgb(0, 255, 255);transform:matrix(1, 0, 0, 1, 0, 0);;animation:none"></path></g>
<g transform="matrix(1,0,0,1,0,1.8284286260604858)" style="transform:matrix(1, 0, 0, 1, 0, 1.82843);;animation:none"><path fill="#01f8f9" d="M-95.60 -143.40A95.60 95.60 0 0 1 95.60 -143.40A95.60 95.60 0 0 1 286.80 -143.40A95.60 95.60 0 0 1 478 -143.40A95.60 95.60 0 0 1 669.20 -143.40A95.60 95.60 0 0 1 860.40 -143.40A95.60 95.60 0 0 1 1051.60 -143.40A95.60 95.60 0 0 1 1242.80 -143.40A95.60 95.60 0 0 1 1434 -143.40A95.60 95.60 0 0 1 1625.20 -143.40A95.60 95.60 0 0 1 1816.40 -143.40A95.60 95.60 0 0 1 2007.60 -143.40A95.60 95.60 0 0 1 2198.80 -143.40L-95.60 -143.40" transform="matrix(1,0,0,1,3.5597217082977295,0)" style="fill:rgb(1, 248, 249);transform:matrix(1, 0, 0, 1, 3.55972, 0);;animation:none"></path></g>
<g transform="matrix(1,0,0,1,0,7.363280773162842)" style="transform:matrix(1, 0, 0, 1, 0, 7.36328);;animation:none"><path fill="#01f1f2" d="M-191.20 -105.16A95.60 95.60 0 0 1 0 -105.16A95.60 95.60 0 0 1 191.20 -105.16A95.60 95.60 0 0 1 382.40 -105.16A95.60 95.60 0 0 1 573.60 -105.16A95.60 95.60 0 0 1 764.80 -105.16A95.60 95.60 0 0 1 956 -105.16A95.60 95.60 0 0 1 1147.20 -105.16A95.60 95.60 0 0 1 1338.40 -105.16A95.60 95.60 0 0 1 1529.60 -105.16A95.60 95.60 0 0 1 1720.80 -105.16A95.60 95.60 0 0 1 1912 -105.16A95.60 95.60 0 0 1 2103.20 -105.16L-191.20 -105.16" transform="matrix(1,0,0,1,12.421762466430664,0)" style="fill:rgb(1, 241, 242);transform:matrix(1, 0, 0, 1, 12.4218, 0);;animation:none"></path></g>
<g transform="matrix(1,0,0,1,0,9.550459861755371)" style="transform:matrix(1, 0, 0, 1, 0, 9.55046);;animation:none"><path fill="#02eaec" d="M-95.60 -66.92A95.60 95.60 0 0 1 95.60 -66.92A95.60 95.60 0 0 1 286.80 -66.92A95.60 95.60 0 0 1 478 -66.92A95.60 95.60 0 0 1 669.20 -66.92A95.60 95.60 0 0 1 860.40 -66.92A95.60 95.60 0 0 1 1051.60 -66.92A95.60 95.60 0 0 1 1242.80 -66.92A95.60 95.60 0 0 1 1434 -66.92A95.60 95.60 0 0 1 1625.20 -66.92A95.60 95.60 0 0 1 1816.40 -66.92A95.60 95.60 0 0 1 2007.60 -66.92A95.60 95.60 0 0 1 2198.80 -66.92L-95.60 -66.92" transform="matrix(1,0,0,1,24.58778190612793,0)" style="fill:rgb(2, 234, 236);transform:matrix(1, 0, 0, 1, 24.5878, 0);;animation:none"></path></g>
<g transform="matrix(1,0,0,1,0,8.061400413513184)" style="transform:matrix(1, 0, 0, 1, 0, 8.0614);;animation:none"><path fill="#03e3e5" d="M-191.20 -28.68A95.60 95.60 0 0 1 0 -28.68A95.60 95.60 0 0 1 191.20 -28.68A95.60 95.60 0 0 1 382.40 -28.68A95.60 95.60 0 0 1 573.60 -28.68A95.60 95.60 0 0 1 764.80 -28.68A95.60 95.60 0 0 1 956 -28.68A95.60 95.60 0 0 1 1147.20 -28.68A95.60 95.60 0 0 1 1338.40 -28.68A95.60 95.60 0 0 1 1529.60 -28.68A95.60 95.60 0 0 1 1720.80 -28.68A95.60 95.60 0 0 1 1912 -28.68A95.60 95.60 0 0 1 2103.20 -28.68L-191.20 -28.68" transform="matrix(1,0,0,1,38.615970611572266,0)" style="fill:rgb(3, 227, 229);transform:matrix(1, 0, 0, 1, 38.616, 0);;animation:none"></path></g>
<g transform="matrix(1,0,0,1,0,2.6025891304016113)" style="transform:matrix(1, 0, 0, 1, 0, 2.60259);;animation:none"><path fill="#03dddf" d="M-95.60 9.56A95.60 95.60 0 0 1 95.60 9.56A95.60 95.60 0 0 1 286.80 9.56A95.60 95.60 0 0 1 478 9.56A95.60 95.60 0 0 1 669.20 9.56A95.60 95.60 0 0 1 860.40 9.56A95.60 95.60 0 0 1 1051.60 9.56A95.60 95.60 0 0 1 1242.80 9.56A95.60 95.60 0 0 1 1434 9.56A95.60 95.60 0 0 1 1625.20 9.56A95.60 95.60 0 0 1 1816.40 9.56A95.60 95.60 0 0 1 2007.60 9.56A95.60 95.60 0 0 1 2198.80 9.56L-95.60 9.56" transform="matrix(1,0,0,1,53.32721710205078,0)" style="fill:rgb(3, 221, 223);transform:matrix(1, 0, 0, 1, 53.3272, 0);;animation:none"></path></g>
<g transform="matrix(1,0,0,1,0,0.039116859436035156)" style="transform:matrix(1, 0, 0, 1, 0, 0.0391169);;animation:none"><path fill="#04d6d9" d="M-191.20 47.80A95.60 95.60 0 0 1 0 47.80A95.60 95.60 0 0 1 191.20 47.80A95.60 95.60 0 0 1 382.40 47.80A95.60 95.60 0 0 1 573.60 47.80A95.60 95.60 0 0 1 764.80 47.80A95.60 95.60 0 0 1 956 47.80A95.60 95.60 0 0 1 1147.20 47.80A95.60 95.60 0 0 1 1338.40 47.80A95.60 95.60 0 0 1 1529.60 47.80A95.60 95.60 0 0 1 1720.80 47.80A95.60 95.60 0 0 1 1912 47.80A95.60 95.60 0 0 1 2103.20 47.80L-191.20 47.80" transform="matrix(1,0,0,1,67.6307144165039,0)" style="fill:rgb(4, 214, 217);transform:matrix(1, 0, 0, 1, 67.6307, 0);;animation:none"></path></g>
<g transform="matrix(1,0,0,1,0,-1.2068403959274292)" style="transform:matrix(1, 0, 0, 1, 0, -1.20684);;animation:none"><path fill="#05cfd2" d="M-95.60 86.04A95.60 95.60 0 0 1 95.60 86.04A95.60 95.60 0 0 1 286.80 86.04A95.60 95.60 0 0 1 478 86.04A95.60 95.60 0 0 1 669.20 86.04A95.60 95.60 0 0 1 860.40 86.04A95.60 95.60 0 0 1 1051.60 86.04A95.60 95.60 0 0 1 1242.80 86.04A95.60 95.60 0 0 1 1434 86.04A95.60 95.60 0 0 1 1625.20 86.04A95.60 95.60 0 0 1 1816.40 86.04A95.60 95.60 0 0 1 2007.60 86.04A95.60 95.60 0 0 1 2198.80 86.04L-95.60 86.04" transform="matrix(1,0,0,1,80.38349914550781,0)" style="fill:rgb(5, 207, 210);transform:matrix(1, 0, 0, 1, 80.3835, 0);;animation:none"></path></g>
<g transform="matrix(1,0,0,1,0,-6.5164313316345215)" style="transform:matrix(1, 0, 0, 1, 0, -6.51643);;animation:none"><path fill="#05c8cc" d="M-191.20 124.28A95.60 95.60 0 0 1 0 124.28A95.60 95.60 0 0 1 191.20 124.28A95.60 95.60 0 0 1 382.40 124.28A95.60 95.60 0 0 1 573.60 124.28A95.60 95.60 0 0 1 764.80 124.28A95.60 95.60 0 0 1 956 124.28A95.60 95.60 0 0 1 1147.20 124.28A95.60 95.60 0 0 1 1338.40 124.28A95.60 95.60 0 0 1 1529.60 124.28A95.60 95.60 0 0 1 1720.80 124.28A95.60 95.60 0 0 1 1912 124.28A95.60 95.60 0 0 1 2103.20 124.28L-191.20 124.28" transform="matrix(1,0,0,1,90.2302474975586,0)" style="fill:rgb(5, 200, 204);transform:matrix(1, 0, 0, 1, 90.2302, 0);;animation:none"></path></g>
<g transform="matrix(1,0,0,1,0,-9.46973705291748)" style="transform:matrix(1, 0, 0, 1, 0, -9.46974);;animation:none"><path fill="#06c1c5" d="M-95.60 162.52A95.60 95.60 0 0 1 95.60 162.52A95.60 95.60 0 0 1 286.80 162.52A95.60 95.60 0 0 1 478 162.52A95.60 95.60 0 0 1 669.20 162.52A95.60 95.60 0 0 1 860.40 162.52A95.60 95.60 0 0 1 1051.60 162.52A95.60 95.60 0 0 1 1242.80 162.52A95.60 95.60 0 0 1 1434 162.52A95.60 95.60 0 0 1 1625.20 162.52A95.60 95.60 0 0 1 1816.40 162.52A95.60 95.60 0 0 1 2007.60 162.52A95.60 95.60 0 0 1 2198.80 162.52L-95.60 162.52" transform="matrix(1,0,0,1,95.3513412475586,0)" style="fill:rgb(6, 193, 197);transform:matrix(1, 0, 0, 1, 95.3513, 0);;animation:none"></path></g>
<g transform="matrix(1,0,0,1,0,-8.608016014099121)" style="transform:matrix(1, 0, 0, 1, 0, -8.60802);;animation:none"><path fill="#07babf" d="M-191.20 200.76A95.60 95.60 0 0 1 0 200.76A95.60 95.60 0 0 1 191.20 200.76A95.60 95.60 0 0 1 382.40 200.76A95.60 95.60 0 0 1 573.60 200.76A95.60 95.60 0 0 1 764.80 200.76A95.60 95.60 0 0 1 956 200.76A95.60 95.60 0 0 1 1147.20 200.76A95.60 95.60 0 0 1 1338.40 200.76A95.60 95.60 0 0 1 1529.60 200.76A95.60 95.60 0 0 1 1720.80 200.76A95.60 95.60 0 0 1 1912 200.76A95.60 95.60 0 0 1 2103.20 200.76L-191.20 200.76" transform="matrix(1,0,0,1,93.52415466308594,0)" style="fill:rgb(7, 186, 191);transform:matrix(1, 0, 0, 1, 93.5242, 0);;animation:none"></path></g>
<g transform="matrix(1,0,0,1,0,-3.5152106285095215)" style="transform:matrix(1, 0, 0, 1, 0, -3.51521);;animation:none"><path fill="#07b3b8" d="M-95.60 239A95.60 95.60 0 0 1 95.60 239A95.60 95.60 0 0 1 286.80 239A95.60 95.60 0 0 1 478 239A95.60 95.60 0 0 1 669.20 239A95.60 95.60 0 0 1 860.40 239A95.60 95.60 0 0 1 1051.60 239A95.60 95.60 0 0 1 1242.80 239A95.60 95.60 0 0 1 1434 239A95.60 95.60 0 0 1 1625.20 239A95.60 95.60 0 0 1 1816.40 239A95.60 95.60 0 0 1 2007.60 239A95.60 95.60 0 0 1 2198.80 239L-95.60 239" transform="matrix(1,0,0,1,85.76896667480469,0)" style="fill:rgb(7, 179, 184);transform:matrix(1, 0, 0, 1, 85.769, 0);;animation:none"></path></g>
<g transform="matrix(1,0,0,1,0,-0.1646442413330078)" style="transform:matrix(1, 0, 0, 1, 0, -0.164644);;animation:none"><path fill="#08acb2" d="M-191.20 277.24A95.60 95.60 0 0 1 0 277.24A95.60 95.60 0 0 1 191.20 277.24A95.60 95.60 0 0 1 382.40 277.24A95.60 95.60 0 0 1 573.60 277.24A95.60 95.60 0 0 1 764.80 277.24A95.60 95.60 0 0 1 956 277.24A95.60 95.60 0 0 1 1147.20 277.24A95.60 95.60 0 0 1 1338.40 277.24A95.60 95.60 0 0 1 1529.60 277.24A95.60 95.60 0 0 1 1720.80 277.24A95.60 95.60 0 0 1 1912 277.24A95.60 95.60 0 0 1 2103.20 277.24L-191.20 277.24" transform="matrix(1,0,0,1,74.27845764160156,0)" style="fill:rgb(8, 172, 178);transform:matrix(1, 0, 0, 1, 74.2785, 0);;animation:none"></path></g>
<g transform="matrix(1,0,0,1,0,0.7323100566864014)" style="transform:matrix(1, 0, 0, 1, 0, 0.73231);;animation:none"><path fill="#09a5ac" d="M-95.60 315.48A95.60 95.60 0 0 1 95.60 315.48A95.60 95.60 0 0 1 286.80 315.48A95.60 95.60 0 0 1 478 315.48A95.60 95.60 0 0 1 669.20 315.48A95.60 95.60 0 0 1 860.40 315.48A95.60 95.60 0 0 1 1051.60 315.48A95.60 95.60 0 0 1 1242.80 315.48A95.60 95.60 0 0 1 1434 315.48A95.60 95.60 0 0 1 1625.20 315.48A95.60 95.60 0 0 1 1816.40 315.48A95.60 95.60 0 0 1 2007.60 315.48A95.60 95.60 0 0 1 2198.80 315.48L-95.60 315.48" transform="matrix(1,0,0,1,60.59856033325195,0)" style="fill:rgb(9, 165, 172);transform:matrix(1, 0, 0, 1, 60.5986, 0);;animation:none"></path></g>
<g transform="matrix(1,0,0,1,0,5.54915714263916)" style="transform:matrix(1, 0, 0, 1, 0, 5.54916);;animation:none"><path fill="#099fa5" d="M-191.20 353.72A95.60 95.60 0 0 1 0 353.72A95.60 95.60 0 0 1 191.20 353.72A95.60 95.60 0 0 1 382.40 353.72A95.60 95.60 0 0 1 573.60 353.72A95.60 95.60 0 0 1 764.80 353.72A95.60 95.60 0 0 1 956 353.72A95.60 95.60 0 0 1 1147.20 353.72A95.60 95.60 0 0 1 1338.40 353.72A95.60 95.60 0 0 1 1529.60 353.72A95.60 95.60 0 0 1 1720.80 353.72A95.60 95.60 0 0 1 1912 353.72A95.60 95.60 0 0 1 2103.20 353.72L-191.20 353.72" transform="matrix(1,0,0,1,45.954830169677734,0)" style="fill:rgb(9, 159, 165);transform:matrix(1, 0, 0, 1, 45.9548, 0);;animation:none"></path></g>
<g transform="matrix(1,0,0,1,0,9.295938491821289)" style="transform:matrix(1, 0, 0, 1, 0, 9.29594);;animation:none"><path fill="#0a989f" d="M-95.60 391.96A95.60 95.60 0 0 1 95.60 391.96A95.60 95.60 0 0 1 286.80 391.96A95.60 95.60 0 0 1 478 391.96A95.60 95.60 0 0 1 669.20 391.96A95.60 95.60 0 0 1 860.40 391.96A95.60 95.60 0 0 1 1051.60 391.96A95.60 95.60 0 0 1 1242.80 391.96A95.60 95.60 0 0 1 1434 391.96A95.60 95.60 0 0 1 1625.20 391.96A95.60 95.60 0 0 1 1816.40 391.96A95.60 95.60 0 0 1 2007.60 391.96A95.60 95.60 0 0 1 2198.80 391.96L-95.60 391.96" transform="matrix(1,0,0,1,31.446624755859375,0)" style="fill:rgb(10, 152, 159);transform:matrix(1, 0, 0, 1, 31.4466, 0);;animation:none"></path></g>
<g transform="matrix(1,0,0,1,0,9.014168739318848)" style="transform:matrix(1, 0, 0, 1, 0, 9.01417);;animation:none"><path fill="#0b9198" d="M-191.20 430.20A95.60 95.60 0 0 1 0 430.20A95.60 95.60 0 0 1 191.20 430.20A95.60 95.60 0 0 1 382.40 430.20A95.60 95.60 0 0 1 573.60 430.20A95.60 95.60 0 0 1 764.80 430.20A95.60 95.60 0 0 1 956 430.20A95.60 95.60 0 0 1 1147.20 430.20A95.60 95.60 0 0 1 1338.40 430.20A95.60 95.60 0 0 1 1529.60 430.20A95.60 95.60 0 0 1 1720.80 430.20A95.60 95.60 0 0 1 1912 430.20A95.60 95.60 0 0 1 2103.20 430.20L-191.20 430.20" transform="matrix(1,0,0,1,18.190658569335938,0)" style="fill:rgb(11, 145, 152);transform:matrix(1, 0, 0, 1, 18.1907, 0);;animation:none"></path></g>
<g transform="matrix(1,0,0,1,0,4.521848678588867)" style="transform:matrix(1, 0, 0, 1, 0, 4.52185);;animation:none"><path fill="#0b8a92" d="M-95.60 468.44A95.60 95.60 0 0 1 95.60 468.44A95.60 95.60 0 0 1 286.80 468.44A95.60 95.60 0 0 1 478 468.44A95.60 95.60 0 0 1 669.20 468.44A95.60 95.60 0 0 1 860.40 468.44A95.60 95.60 0 0 1 1051.60 468.44A95.60 95.60 0 0 1 1242.80 468.44A95.60 95.60 0 0 1 1434 468.44A95.60 95.60 0 0 1 1625.20 468.44A95.60 95.60 0 0 1 1816.40 468.44A95.60 95.60 0 0 1 2007.60 468.44A95.60 95.60 0 0 1 2198.80 468.44L-95.60 468.44" transform="matrix(1,0,0,1,7.470787048339844,0)" style="fill:rgb(11, 138, 146);transform:matrix(1, 0, 0, 1, 7.47079, 0);;animation:none"></path></g>
<g transform="matrix(1,0,0,1,0,0.39045047760009766)" style="transform:matrix(1, 0, 0, 1, 0, 0.39045);;animation:none"><path fill="#0c838c" d="M-191.20 506.68A95.60 95.60 0 0 1 0 506.68A95.60 95.60 0 0 1 191.20 506.68A95.60 95.60 0 0 1 382.40 506.68A95.60 95.60 0 0 1 573.60 506.68A95.60 95.60 0 0 1 764.80 506.68A95.60 95.60 0 0 1 956 506.68A95.60 95.60 0 0 1 1147.20 506.68A95.60 95.60 0 0 1 1338.40 506.68A95.60 95.60 0 0 1 1529.60 506.68A95.60 95.60 0 0 1 1720.80 506.68A95.60 95.60 0 0 1 1912 506.68A95.60 95.60 0 0 1 2103.20 506.68L-191.20 506.68" transform="matrix(1,0,0,1,0.9574203491210938,0)" style="fill:rgb(12, 131, 140);transform:matrix(1, 0, 0, 1, 0.95742, 0);;animation:none"></path></g>
<g transform="matrix(1,0,0,1,0,-0.39045003056526184)" style="transform:matrix(1, 0, 0, 1, 0, -0.39045);;animation:none"><path fill="#0d7c85" d="M-95.60 544.92A95.60 95.60 0 0 1 95.60 544.92A95.60 95.60 0 0 1 286.80 544.92A95.60 95.60 0 0 1 478 544.92A95.60 95.60 0 0 1 669.20 544.92A95.60 95.60 0 0 1 860.40 544.92A95.60 95.60 0 0 1 1051.60 544.92A95.60 95.60 0 0 1 1242.80 544.92A95.60 95.60 0 0 1 1434 544.92A95.60 95.60 0 0 1 1625.20 544.92A95.60 95.60 0 0 1 1816.40 544.92A95.60 95.60 0 0 1 2007.60 544.92A95.60 95.60 0 0 1 2198.80 544.92L-95.60 544.92" transform="matrix(1,0,0,1,-0.9574041366577148,0)" style="fill:rgb(13, 124, 133);transform:matrix(1, 0, 0, 1, -0.957404, 0);;animation:none"></path></g>
<g transform="matrix(1,0,0,1,0,-4.521848678588867)" style="transform:matrix(1, 0, 0, 1, 0, -4.52185);;animation:none"><path fill="#0d757f" d="M-191.20 583.16A95.60 95.60 0 0 1 0 583.16A95.60 95.60 0 0 1 191.20 583.16A95.60 95.60 0 0 1 382.40 583.16A95.60 95.60 0 0 1 573.60 583.16A95.60 95.60 0 0 1 764.80 583.16A95.60 95.60 0 0 1 956 583.16A95.60 95.60 0 0 1 1147.20 583.16A95.60 95.60 0 0 1 1338.40 583.16A95.60 95.60 0 0 1 1529.60 583.16A95.60 95.60 0 0 1 1720.80 583.16A95.60 95.60 0 0 1 1912 583.16A95.60 95.60 0 0 1 2103.20 583.16L-191.20 583.16" transform="matrix(1,0,0,1,-7.470755577087402,0)" style="fill:rgb(13, 117, 127);transform:matrix(1, 0, 0, 1, -7.47076, 0);;animation:none"></path></g>
<g transform="matrix(1,0,0,1,0,-9.014168739318848)" style="transform:matrix(1, 0, 0, 1, 0, -9.01417);;animation:none"><path fill="#0e6e78" d="M-95.60 621.40A95.60 95.60 0 0 1 95.60 621.40A95.60 95.60 0 0 1 286.80 621.40A95.60 95.60 0 0 1 478 621.40A95.60 95.60 0 0 1 669.20 621.40A95.60 95.60 0 0 1 860.40 621.40A95.60 95.60 0 0 1 1051.60 621.40A95.60 95.60 0 0 1 1242.80 621.40A95.60 95.60 0 0 1 1434 621.40A95.60 95.60 0 0 1 1625.20 621.40A95.60 95.60 0 0 1 1816.40 621.40A95.60 95.60 0 0 1 2007.60 621.40A95.60 95.60 0 0 1 2198.80 621.40L-95.60 621.40" transform="matrix(1,0,0,1,-18.190628051757812,0)" style="fill:rgb(14, 110, 120);transform:matrix(1, 0, 0, 1, -18.1906, 0);;animation:none"></path></g>
<g transform="matrix(1,0,0,1,0,-9.295938491821289)" style="transform:matrix(1, 0, 0, 1, 0, -9.29594);;animation:none"><path fill="#0f6772" d="M-191.20 659.64A95.60 95.60 0 0 1 0 659.64A95.60 95.60 0 0 1 191.20 659.64A95.60 95.60 0 0 1 382.40 659.64A95.60 95.60 0 0 1 573.60 659.64A95.60 95.60 0 0 1 764.80 659.64A95.60 95.60 0 0 1 956 659.64A95.60 95.60 0 0 1 1147.20 659.64A95.60 95.60 0 0 1 1338.40 659.64A95.60 95.60 0 0 1 1529.60 659.64A95.60 95.60 0 0 1 1720.80 659.64A95.60 95.60 0 0 1 1912 659.64A95.60 95.60 0 0 1 2103.20 659.64L-191.20 659.64" transform="matrix(1,0,0,1,-31.446557998657227,0)" style="fill:rgb(15, 103, 114);transform:matrix(1, 0, 0, 1, -31.4466, 0);;animation:none"></path></g>
<g transform="matrix(1,0,0,1,0,-5.5491557121276855)" style="transform:matrix(1, 0, 0, 1, 0, -5.54916);;animation:none"><path fill="#0f616b" d="M-95.60 697.88A95.60 95.60 0 0 1 95.60 697.88A95.60 95.60 0 0 1 286.80 697.88A95.60 95.60 0 0 1 478 697.88A95.60 95.60 0 0 1 669.20 697.88A95.60 95.60 0 0 1 860.40 697.88A95.60 95.60 0 0 1 1051.60 697.88A95.60 95.60 0 0 1 1242.80 697.88A95.60 95.60 0 0 1 1434 697.88A95.60 95.60 0 0 1 1625.20 697.88A95.60 95.60 0 0 1 1816.40 697.88A95.60 95.60 0 0 1 2007.60 697.88A95.60 95.60 0 0 1 2198.80 697.88L-95.60 697.88" transform="matrix(1,0,0,1,-45.95478057861328,0)" style="fill:rgb(15, 97, 107);transform:matrix(1, 0, 0, 1, -45.9548, 0);;animation:none"></path></g>
<g transform="matrix(1,0,0,1,0,-0.7323102951049805)" style="transform:matrix(1, 0, 0, 1, 0, -0.73231);;animation:none"><path fill="#105a65" d="M-191.20 736.12A95.60 95.60 0 0 1 0 736.12A95.60 95.60 0 0 1 191.20 736.12A95.60 95.60 0 0 1 382.40 736.12A95.60 95.60 0 0 1 573.60 736.12A95.60 95.60 0 0 1 764.80 736.12A95.60 95.60 0 0 1 956 736.12A95.60 95.60 0 0 1 1147.20 736.12A95.60 95.60 0 0 1 1338.40 736.12A95.60 95.60 0 0 1 1529.60 736.12A95.60 95.60 0 0 1 1720.80 736.12A95.60 95.60 0 0 1 1912 736.12A95.60 95.60 0 0 1 2103.20 736.12L-191.20 736.12" transform="matrix(1,0,0,1,-60.598514556884766,0)" style="fill:rgb(16, 90, 101);transform:matrix(1, 0, 0, 1, -60.5985, 0);;animation:none"></path></g>
<g transform="matrix(1,0,0,1,0,0.1646440625190735)" style="transform:matrix(1, 0, 0, 1, 0, 0.164644);;animation:none"><path fill="#11535f" d="M-95.60 774.36A95.60 95.60 0 0 1 95.60 774.36A95.60 95.60 0 0 1 286.80 774.36A95.60 95.60 0 0 1 478 774.36A95.60 95.60 0 0 1 669.20 774.36A95.60 95.60 0 0 1 860.40 774.36A95.60 95.60 0 0 1 1051.60 774.36A95.60 95.60 0 0 1 1242.80 774.36A95.60 95.60 0 0 1 1434 774.36A95.60 95.60 0 0 1 1625.20 774.36A95.60 95.60 0 0 1 1816.40 774.36A95.60 95.60 0 0 1 2007.60 774.36A95.60 95.60 0 0 1 2198.80 774.36L-95.60 774.36" transform="matrix(1,0,0,1,-74.27839660644531,0)" style="fill:rgb(17, 83, 95);transform:matrix(1, 0, 0, 1, -74.2784, 0);;animation:none"></path></g>
<g transform="matrix(1,0,0,1,0,3.5152130126953125)" style="transform:matrix(1, 0, 0, 1, 0, 3.51521);;animation:none"><path fill="#114c58" d="M-191.20 812.60A95.60 95.60 0 0 1 0 812.60A95.60 95.60 0 0 1 191.20 812.60A95.60 95.60 0 0 1 382.40 812.60A95.60 95.60 0 0 1 573.60 812.60A95.60 95.60 0 0 1 764.80 812.60A95.60 95.60 0 0 1 956 812.60A95.60 95.60 0 0 1 1147.20 812.60A95.60 95.60 0 0 1 1338.40 812.60A95.60 95.60 0 0 1 1529.60 812.60A95.60 95.60 0 0 1 1720.80 812.60A95.60 95.60 0 0 1 1912 812.60A95.60 95.60 0 0 1 2103.20 812.60L-191.20 812.60" transform="matrix(1,0,0,1,-85.76893615722656,0)" style="fill:rgb(17, 76, 88);transform:matrix(1, 0, 0, 1, -85.7689, 0);;animation:none"></path></g>
<g transform="matrix(1,0,0,1,0,8.608016014099121)" style="transform:matrix(1, 0, 0, 1, 0, 8.60802);;animation:none"><path fill="#124552" d="M-95.60 850.84A95.60 95.60 0 0 1 95.60 850.84A95.60 95.60 0 0 1 286.80 850.84A95.60 95.60 0 0 1 478 850.84A95.60 95.60 0 0 1 669.20 850.84A95.60 95.60 0 0 1 860.40 850.84A95.60 95.60 0 0 1 1051.60 850.84A95.60 95.60 0 0 1 1242.80 850.84A95.60 95.60 0 0 1 1434 850.84A95.60 95.60 0 0 1 1625.20 850.84A95.60 95.60 0 0 1 1816.40 850.84A95.60 95.60 0 0 1 2007.60 850.84A95.60 95.60 0 0 1 2198.80 850.84L-95.60 850.84" transform="matrix(1,0,0,1,-93.52413940429688,0)" style="fill:rgb(18, 69, 82);transform:matrix(1, 0, 0, 1, -93.5241, 0);;animation:none"></path></g>
<g transform="matrix(1,0,0,1,0,9.469738006591797)" style="transform:matrix(1, 0, 0, 1, 0, 9.46974);;animation:none"><path fill="#133e4b" d="M-191.20 889.08A95.60 95.60 0 0 1 0 889.08A95.60 95.60 0 0 1 191.20 889.08A95.60 95.60 0 0 1 382.40 889.08A95.60 95.60 0 0 1 573.60 889.08A95.60 95.60 0 0 1 764.80 889.08A95.60 95.60 0 0 1 956 889.08A95.60 95.60 0 0 1 1147.20 889.08A95.60 95.60 0 0 1 1338.40 889.08A95.60 95.60 0 0 1 1529.60 889.08A95.60 95.60 0 0 1 1720.80 889.08A95.60 95.60 0 0 1 1912 889.08A95.60 95.60 0 0 1 2103.20 889.08L-191.20 889.08" transform="matrix(1,0,0,1,-95.35134887695312,0)" style="fill:rgb(19, 62, 75);transform:matrix(1, 0, 0, 1, -95.3513, 0);;animation:none"></path></g>
<g transform="matrix(1,0,0,1,0,6.516430854797363)" style="transform:matrix(1, 0, 0, 1, 0, 6.51643);;animation:none"><path fill="#133745" d="M-95.60 927.32A95.60 95.60 0 0 1 95.60 927.32A95.60 95.60 0 0 1 286.80 927.32A95.60 95.60 0 0 1 478 927.32A95.60 95.60 0 0 1 669.20 927.32A95.60 95.60 0 0 1 860.40 927.32A95.60 95.60 0 0 1 1051.60 927.32A95.60 95.60 0 0 1 1242.80 927.32A95.60 95.60 0 0 1 1434 927.32A95.60 95.60 0 0 1 1625.20 927.32A95.60 95.60 0 0 1 1816.40 927.32A95.60 95.60 0 0 1 2007.60 927.32A95.60 95.60 0 0 1 2198.80 927.32L-95.60 927.32" transform="matrix(1,0,0,1,-90.23028564453125,0)" style="fill:rgb(19, 55, 69);transform:matrix(1, 0, 0, 1, -90.2303, 0);;animation:none"></path></g>
<g transform="matrix(1,0,0,1,0,1.2068405151367188)" style="transform:matrix(1, 0, 0, 1, 0, 1.20684);;animation:none"><path fill="#14303f" d="M-191.20 965.56A95.60 95.60 0 0 1 0 965.56A95.60 95.60 0 0 1 191.20 965.56A95.60 95.60 0 0 1 382.40 965.56A95.60 95.60 0 0 1 573.60 965.56A95.60 95.60 0 0 1 764.80 965.56A95.60 95.60 0 0 1 956 965.56A95.60 95.60 0 0 1 1147.20 965.56A95.60 95.60 0 0 1 1338.40 965.56A95.60 95.60 0 0 1 1529.60 965.56A95.60 95.60 0 0 1 1720.80 965.56A95.60 95.60 0 0 1 1912 965.56A95.60 95.60 0 0 1 2103.20 965.56L-191.20 965.56" transform="matrix(1,0,0,1,-80.38353729248047,0)" style="fill:rgb(20, 48, 63);transform:matrix(1, 0, 0, 1, -80.3835, 0);;animation:none"></path></g>
<g transform="matrix(1,0,0,1,0,-0.03911668434739113)" style="transform:matrix(1, 0, 0, 1, 0, -0.0391167);;animation:none"><path fill="#152938" d="M-95.60 1003.80A95.60 95.60 0 0 1 95.60 1003.80A95.60 95.60 0 0 1 286.80 1003.80A95.60 95.60 0 0 1 478 1003.80A95.60 95.60 0 0 1 669.20 1003.80A95.60 95.60 0 0 1 860.40 1003.80A95.60 95.60 0 0 1 1051.60 1003.80A95.60 95.60 0 0 1 1242.80 1003.80A95.60 95.60 0 0 1 1434 1003.80A95.60 95.60 0 0 1 1625.20 1003.80A95.60 95.60 0 0 1 1816.40 1003.80A95.60 95.60 0 0 1 2007.60 1003.80A95.60 95.60 0 0 1 2198.80 1003.80L-95.60 1003.80" transform="matrix(1,0,0,1,-67.6307601928711,0)" style="fill:rgb(21, 41, 56);transform:matrix(1, 0, 0, 1, -67.6308, 0);;animation:none"></path></g>
<g transform="matrix(1,0,0,1,0,-2.6025893688201904)" style="transform:matrix(1, 0, 0, 1, 0, -2.60259);;animation:none"><path fill="#152332" d="M-191.20 1042.04A95.60 95.60 0 0 1 0 1042.04A95.60 95.60 0 0 1 191.20 1042.04A95.60 95.60 0 0 1 382.40 1042.04A95.60 95.60 0 0 1 573.60 1042.04A95.60 95.60 0 0 1 764.80 1042.04A95.60 95.60 0 0 1 956 1042.04A95.60 95.60 0 0 1 1147.20 1042.04A95.60 95.60 0 0 1 1338.40 1042.04A95.60 95.60 0 0 1 1529.60 1042.04A95.60 95.60 0 0 1 1720.80 1042.04A95.60 95.60 0 0 1 1912 1042.04A95.60 95.60 0 0 1 2103.20 1042.04L-191.20 1042.04" transform="matrix(1,0,0,1,-53.3272590637207,0)" style="fill:rgb(21, 35, 50);transform:matrix(1, 0, 0, 1, -53.3273, 0);;animation:none"></path></g>
<g transform="matrix(1,0,0,1,0,-8.0614013671875)" style="transform:matrix(1, 0, 0, 1, 0, -8.0614);;animation:none"><path fill="#161c2b" d="M-95.60 1080.28A95.60 95.60 0 0 1 95.60 1080.28A95.60 95.60 0 0 1 286.80 1080.28A95.60 95.60 0 0 1 478 1080.28A95.60 95.60 0 0 1 669.20 1080.28A95.60 95.60 0 0 1 860.40 1080.28A95.60 95.60 0 0 1 1051.60 1080.28A95.60 95.60 0 0 1 1242.80 1080.28A95.60 95.60 0 0 1 1434 1080.28A95.60 95.60 0 0 1 1625.20 1080.28A95.60 95.60 0 0 1 1816.40 1080.28A95.60 95.60 0 0 1 2007.60 1080.28A95.60 95.60 0 0 1 2198.80 1080.28L-95.60 1080.28" transform="matrix(1,0,0,1,-38.616031646728516,0)" style="fill:rgb(22, 28, 43);transform:matrix(1, 0, 0, 1, -38.616, 0);;animation:none"></path></g>
<g transform="matrix(1,0,0,1,0,-9.550459861755371)" style="transform:matrix(1, 0, 0, 1, 0, -9.55046);;animation:none"><path fill="#171525" d="M-191.20 1118.52A95.60 95.60 0 0 1 0 1118.52A95.60 95.60 0 0 1 191.20 1118.52A95.60 95.60 0 0 1 382.40 1118.52A95.60 95.60 0 0 1 573.60 1118.52A95.60 95.60 0 0 1 764.80 1118.52A95.60 95.60 0 0 1 956 1118.52A95.60 95.60 0 0 1 1147.20 1118.52A95.60 95.60 0 0 1 1338.40 1118.52A95.60 95.60 0 0 1 1529.60 1118.52A95.60 95.60 0 0 1 1720.80 1118.52A95.60 95.60 0 0 1 1912 1118.52A95.60 95.60 0 0 1 2103.20 1118.52L-191.20 1118.52" transform="matrix(1,0,0,1,-24.58782196044922,0)" style="fill:rgb(23, 21, 37);transform:matrix(1, 0, 0, 1, -24.5878, 0);;animation:none"></path></g>
<g transform="matrix(1,0,0,1,0,-7.363279819488525)" style="transform:matrix(1, 0, 0, 1, 0, -7.36328);;animation:none"><path fill="#170e1e" d="M-95.60 1156.76A95.60 95.60 0 0 1 95.60 1156.76A95.60 95.60 0 0 1 286.80 1156.76A95.60 95.60 0 0 1 478 1156.76A95.60 95.60 0 0 1 669.20 1156.76A95.60 95.60 0 0 1 860.40 1156.76A95.60 95.60 0 0 1 1051.60 1156.76A95.60 95.60 0 0 1 1242.80 1156.76A95.60 95.60 0 0 1 1434 1156.76A95.60 95.60 0 0 1 1625.20 1156.76A95.60 95.60 0 0 1 1816.40 1156.76A95.60 95.60 0 0 1 2007.60 1156.76A95.60 95.60 0 0 1 2198.80 1156.76L-95.60 1156.76" transform="matrix(1,0,0,1,-12.421791076660156,0)" style="fill:rgb(23, 14, 30);transform:matrix(1, 0, 0, 1, -12.4218, 0);;animation:none"></path></g>
<g transform="matrix(1,0,0,1,0,-1.82843017578125)" style="transform:matrix(1, 0, 0, 1, 0, -1.82843);;animation:none"><path fill="#180718" d="M-191.20 1195A95.60 95.60 0 0 1 0 1195A95.60 95.60 0 0 1 191.20 1195A95.60 95.60 0 0 1 382.40 1195A95.60 95.60 0 0 1 573.60 1195A95.60 95.60 0 0 1 764.80 1195A95.60 95.60 0 0 1 956 1195A95.60 95.60 0 0 1 1147.20 1195A95.60 95.60 0 0 1 1338.40 1195A95.60 95.60 0 0 1 1529.60 1195A95.60 95.60 0 0 1 1720.80 1195A95.60 95.60 0 0 1 1912 1195A95.60 95.60 0 0 1 2103.20 1195L-191.20 1195" transform="matrix(1,0,0,1,-3.5597381591796875,0)" style="fill:rgb(24, 7, 24);transform:matrix(1, 0, 0, 1, -3.55974, 0);;animation:none"></path></g>
<g></g></g><!-- [ldio] generated by https://loading.io --></svg>